{"title":"The Right Stuff (1983) The first astronauts (Opt.MULTISUBS)","uid":4935103,"size":860363593,"categoryP":"video","categoryS":"movies","magnet":"?xt=urn:btih:98ef1884264fee1ed986e0c7136f8d4f64cda509&amp;dn=The+Right+Stuff+%281983%29+The+first+astronauts+%28Opt.MULTISUBS%29&amp;tr=udp%3A%2F%2Ftracker.openbittorrent.com%3A80&amp;tr=udp%3A%2F%2Fopen.demonii.com%3A1337&amp;tr=udp%3A%2F%2Ftracker.coppersurfer.tk%3A6969&amp;tr=udp%3A%2F%2Fexodus.desync.com%3A6969","seeders":1,"leechers":0,"uploader":"Kuthumi","files":-1,"time":1244216064,"description":"The Right Stuff (1983) The first astronauts (Opt.MULTISUBS) &lt;a href=&quot;\nhttp://www.imdb.com/title/tt0086197/&quot; rel=&quot;nofollow&quot; target=&quot;_NEW&quot;&gt;\nhttp://www.imdb.com/title/tt0086197/&lt;/a&gt;\n\nOptional subtitles in separate idx/sub files (Work in Windows Media Player etc. - see enclosed Note):\nDanish, Dutch (srt format), English, English for the hearing impaired, Finnish, German, Icelandic, Norwegian, Swedish.\n\nAmazing story of the first astronauts who started out as test pilots in primitive rocket planes trying to break the sound barrier, up to the first manned space missions with lots of interesting historic details.\n\nMy ripping procedure has succeeded in rendering decent quality for 700 Mb rips of films up to 2.5 hours, but it gave up on this 3 hour elefant. So I had to increase the filesize to 800 Mb. Check comments on my torrent,\nhttp://thepiratebay.se/torrent/4235467/\n\nWidescreen DVDrip XviD 2-pass 704x384, great stereo sound AC3.\nRuns well in both my standalone DivX players.\n\nThe enclosed sample shows Chuck Yeager being the first to break the sound barrier.\n\nMediaInfo analysis:\nFormat/Info                      : Audio Video Interleave\nFile size                        : 794 MiB\nDuration                         : 3h 4mn\nOveral bit rate                  : 601 Kbps\n\nVideo\nFormat                           : MPEG-4 Visual\nFormat profile                   : Streaming Video@L1\nFormat settings, BVOP            : Yes\nFormat settings, QPel            : No\nFormat settings, GMC             : No warppoints\nFormat settings, Matrix          : Default\nMuxing mode                      : Packet Bitstream\nCodec ID                         : XVID\nCodec ID/Hint                    : XviD\nDuration                         : 3h 4mn\nBit rate                         : 463 Kbps\nWidth                            : 704 pixels\nHeight                           : 384 pixels\nDisplay aspect ratio             : 16/9\nFrame rate                       : 25.000 fps\nResolution                       : 8 bits\nColorimetry                      : 4:2:0\nScan type                        : Progressive\nBits/(Pixel*Frame)               : 0.069\nStream size                      : 612 MiB\nWriting library                  : XviD 1.2.0.dev47 (UTC 2006-11-01)\n\nAudio\nFormat                           : MPEG Audio\nFormat version                   : Version 1\nFormat profile                   : Layer 3\nCodec ID                         : 55\nCodec ID/Hint                    : MP3\nDuration                         : 3h 4mn\nBit rate mode                    : Constant\nBit rate                         : 128 Kbps\nMinimum bit rate                 : 128 Kbps\nChannel(s)                       : 2 channels\nSampling rate                    : 48.0 KHz\nResolution                       : 16 bits\nStream size                      : 169 MiB\nWriting library                  : LAME3.97 \nEncoding settings                : CBR\n\nSource: PAL retail 6.96 Giga (note that PAL/NTSC will give no problems for avi files).","torrent":{"xt":"urn:btih:98ef1884264fee1ed986e0c7136f8d4f64cda509","amp;dn":"The+Right+Stuff+%281983%29+The+first+astronauts+%28Opt.MULTISUBS%29","amp;tr":["udp%3A%2F%2Ftracker.openbittorrent.com%3A80","udp%3A%2F%2Fopen.demonii.com%3A1337","udp%3A%2F%2Ftracker.coppersurfer.tk%3A6969","udp%3A%2F%2Fexodus.desync.com%3A6969"],"infoHash":"98ef1884264fee1ed986e0c7136f8d4f64cda509","infoHashBuffer":{"type":"Buffer","data":[152,239,24,132,38,79,238,30,217,134,224,199,19,111,141,79,100,205,165,9]},"announce":[],"urlList":[]}}